# xmcd
#
# Track frame offsets: 
#        187
#        29702
#        45980
#        68672
#        87372
#        96147
#        113327
#        132537
#        156695
#        184960
#        198937
#        219977
#
# Disc length: 3138 seconds
#
# Revision: 4
# Processed by: cddbd v1.5.2PL0 Copyright (c) Steve Scherf et al.
# Submitted via: ExactAudioCopy v1.0b1
#
DISCID=a70c400c
DTITLE=Doug MacLeod - Come To Find (XRCD)
DYEAR=1994
DGENRE=blues
TTITLE0=Bring It On Home
TTITLE1=Since I Left St. Louis
TTITLE2=Mystery Woman
TTITLE3=Come To Find
TTITLE4=Old Virginia Stomp
TTITLE5=Master's Plan
TTITLE6=Ain't No Grave
TTITLE7=Run With The Devil
TTITLE8=Lost Something This Morning
TTITLE9=Rollin' and Tumblin'
TTITLE10=Any Port In A Storm
TTITLE11=When I Left Missouri
EXTD=AQ-CD-1027\n\nDoug MacLeod:  guitar and vocals\nCharlie Musselwhi
EXTD=te:  harmonica ("Bring It On Home," and "Lost Something This Morn
EXTD=ing"]\nBill Stuve:  acoustic bass\nJimi Bott:  drums\nBlack Cherr
EXTD=y:  back up vocals on "Ain't No Grave"\n
EXTT0=
EXTT1=
EXTT2=
EXTT3=
EXTT4=
EXTT5=
EXTT6=
EXTT7=
EXTT8=
EXTT9=
EXTT10=
EXTT11=
PLAYORDER=
